<svg xmlns="http://www.w3.org/2000/svg" xmlns:xlink="http://www.w3.org/1999/xlink" width="256" zoomAndPan="magnify" viewBox="0 0 192 191.999996" height="256" preserveAspectRatio="xMidYMid meet" version="1.0"><defs><clipPath id="9846d7b7f0"><path d="M 24 24 L 168 24 L 168 168 L 24 168 Z M 24 24 " clip-rule="nonzero"/></clipPath><clipPath id="d1a34f9367"><path d="M 60 24 L 132 24 C 151.882812 24 168 40.117188 168 60 L 168 132 C 168 151.882812 151.882812 168 132 168 L 60 168 C 40.117188 168 24 151.882812 24 132 L 24 60 C 24 40.117188 40.117188 24 60 24 Z M 60 24 " clip-rule="nonzero"/></clipPath><clipPath id="7f2e2e99da"><path d="M 60 60 L 132 60 L 132 132 L 60 132 Z M 60 60 " clip-rule="nonzero"/></clipPath><clipPath id="7739d6fce1"><path d="M 96 60 C 115.882812 60 132 76.117188 132 96 C 132 115.882812 115.882812 132 96 132 C 76.117188 132 60 115.882812 60 96 C 60 76.117188 76.117188 60 96 60 Z M 96 60 " clip-rule="nonzero"/></clipPath><clipPath id="2c3fbc5ab5"><path d="M 0 0 L 72 0 L 72 72 L 0 72 Z M 0 0 " clip-rule="nonzero"/></clipPath><clipPath id="51e58a1b77"><path d="M 36 0 C 55.882812 0 72 16.117188 72 36 C 72 55.882812 55.882812 72 36 72 C 16.117188 72 0 55.882812 0 36 C 0 16.117188 16.117188 0 36 0 Z M 36 0 " clip-rule="nonzero"/></clipPath><clipPath id="96f0df79fe"><rect x="0" width="72" y="0" height="72"/></clipPath></defs><g clip-path="url(#9846d7b7f0)"><g clip-path="url(#d1a34f9367)"><path stroke-linecap="butt" transform="matrix(0.75, 0, 0, 0.75, 24.000001, 23.999999)" fill="none" stroke-linejoin="miter" d="M 48.000002 0.000002 L 144.000008 0.000002 C 170.510427 0.000002 192.000011 21.489587 192.000011 48.000005 L 192.000011 144.000011 C 192.000011 170.510429 170.510427 192.000014 144.000008 192.000014 L 48.000002 192.000014 C 21.489584 192.000014 -0.000000666667 170.510429 -0.000000666667 144.000011 L -0.000000666667 48.000005 C -0.000000666667 21.489587 21.489584 0.000002 48.000002 0.000002 Z M 48.000002 0.000002 " stroke="#000000" stroke-width="32" stroke-opacity="1" stroke-miterlimit="4"/></g></g><g clip-path="url(#7f2e2e99da)"><g clip-path="url(#7739d6fce1)"><g transform="matrix(1, 0, 0, 1, 60, 60)"><g clip-path="url(#96f0df79fe)"><g clip-path="url(#2c3fbc5ab5)"><g clip-path="url(#51e58a1b77)"><rect x="-102.24" width="276.48" fill="#000000" height="276.479994" y="-102.239999" fill-opacity="1"/></g></g></g></g><path stroke-linecap="butt" transform="matrix(0.75, 0, 0, 0.75, 59.999998, 59.999996)" fill="none" stroke-linejoin="miter" d="M 48.000005 0.000005 C 74.510424 0.000005 96.000008 21.48959 96.000008 48.000008 C 96.000008 74.510426 74.510424 96.000011 48.000005 96.000011 C 21.489587 96.000011 0.00000233333 74.510426 0.00000233333 48.000008 C 0.00000233333 21.48959 21.489587 0.000005 48.000005 0.000005 Z M 48.000005 0.000005 " stroke="#000000" stroke-width="32" stroke-opacity="1" stroke-miterlimit="4"/></g></g></svg>